# ProBuilder 4.5.2
# https://unity3d.com/unity/features/worldbuilding/probuilder
# 29/05/2022 15:38:12

mtllib ./LittleCorner.mtl
o LittleCorner

g Cube
v 0.5 -0.5 0.5
v 0 -0.5 0.5
v 0 0 0.5
v 0.5 0 0.5
v -0.5 -0.5 0.5
v -0.5 0 0.5
v -0.25 0.25 0.5
v 0 0.5 0.5
v 0.5 0.5 0.5
v -0.5 -0.5 0
v -0.5 0 0
v -0.5 -0.5 -0.5
v -0.5 0 -0.5
v -0.25 0.25 -0.5
v -0.25 0.25 0
v 0 -0.5 -0.5
v 0 0 -0.5
v 0.5 -0.5 -0.5
v 0.5 0 -0.5
v 0 0.5 -0.5
v 0.5 0.5 -0.5
v 0.5 -0.5 0
v 0.5 0 0
v 0.5 0.5 0
v 0 0.5 0
v 0 -0.5 0

vt 0.5 -0.5
vt 0 -0.5
vt 0 0
vt 0.5 0
vt -0.5 -0.5
vt -0.5 0
vt -0.25 0.25
vt 0 0.5
vt 0.5 0.5
vt 0.5 -0.6532815
vt 0 -0.6532815
vt 0 -0.1913417
vt 0.5 -0.1913417
vt -0.5 -0.6532815
vt -0.5 -0.1913417
vt -0.5 0.135299
vt 0 0.135299
vt 0.5 0.135299
vt -0.5 0.5
vt 0.25 0.25
vt -0.1913417 0
vt -0.6532815 0
vt -0.6532815 0.5
vt -0.1913417 0.5
vt 0.135299 0
vt 0.135299 0.5
vt 0.135299 -0.5
vt -0.1913417 -0.5
vt -0.6532815 -0.5

vn 0 0 1
vn -1 0 0
vn -0.7071068 0.7071068 0
vn 0 0 -1
vn 1 0 0
vn 0 1 0
vn 0 -1 0

usemtl Lit
f 3/3/1 2/2/1 1/1/1
f 3/3/1 1/1/1 4/4/1
f 6/6/1 5/5/1 2/2/1
f 6/6/1 2/2/1 3/3/1
f 7/7/1 6/6/1 3/3/1
f 7/7/1 3/3/1 8/8/1
f 8/8/1 3/3/1 4/4/1
f 8/8/1 4/4/1 9/9/1
f 11/12/2 10/11/2 5/10/2
f 11/12/2 5/10/2 6/13/2
f 13/15/2 12/14/2 10/11/2
f 13/15/2 10/11/2 11/12/2
f 14/16/3 13/15/3 11/12/3
f 14/16/3 11/12/3 15/17/3
f 15/17/3 11/12/3 6/13/3
f 15/17/3 6/13/3 7/18/3
f 17/3/4 16/2/4 13/4/4
f 16/2/4 12/1/4 13/4/4
f 19/6/4 18/5/4 17/3/4
f 18/5/4 16/2/4 17/3/4
f 21/19/4 19/6/4 20/8/4
f 19/6/4 17/3/4 20/8/4
f 20/8/4 17/3/4 14/20/4
f 17/3/4 13/4/4 14/20/4
f 23/3/5 22/2/5 19/4/5
f 22/2/5 18/1/5 19/4/5
f 4/6/5 1/5/5 23/3/5
f 1/5/5 22/2/5 23/3/5
f 9/19/5 4/6/5 24/8/5
f 4/6/5 23/3/5 24/8/5
f 24/8/5 23/3/5 21/9/5
f 23/3/5 19/4/5 21/9/5
f 9/23/6 24/22/6 25/21/6
f 9/23/6 25/21/6 8/24/6
f 8/24/3 25/21/3 15/25/3
f 8/24/3 15/25/3 7/26/3
f 25/21/3 20/28/3 14/27/3
f 25/21/3 14/27/3 15/25/3
f 24/22/6 21/29/6 20/28/6
f 24/22/6 20/28/6 25/21/6
f 26/3/7 16/2/7 22/4/7
f 16/2/7 18/1/7 22/4/7
f 10/6/7 12/5/7 26/3/7
f 12/5/7 16/2/7 26/3/7
f 5/19/7 10/6/7 2/8/7
f 10/6/7 26/3/7 2/8/7
f 2/8/7 26/3/7 1/9/7
f 26/3/7 22/4/7 1/9/7

