# ProBuilder 4.5.2
# https://unity3d.com/unity/features/worldbuilding/probuilder
# 29/05/2022 15:44:29

mtllib ./RightRoundedReadable.mtl
o RightRoundedReadable

g Cube
v -0.3756318 0.2100787 0.5
v -0.2491531 0.3245831 0.5
v -0.2491531 0.25 0.5
v -0.4991531 0.007748127 0.5
v 0.0008468628 0.4300013 0.5
v 0.0008468628 0.25 0.5
v 0.0008468628 0 0.5
v -0.2491531 0 0.5
v -0.4991531 0 0.5
v 0.2508469 0.4849172 0.5
v 0.2508469 0.25 0.5
v 0.5008469 0.5 0.5
v 0.5008469 0.25 0.5
v 0.5008469 0 0.5
v 0.2508469 0 0.5
v 0.2508469 -0.25 0.5
v 0.0008468628 -0.25 0.5
v 0.5008469 -0.25 0.5
v 0.5008469 -0.5 0.5
v 0.2508469 -0.4889283 0.5
v 0.0008468628 -0.4592981 0.5
v -0.2491531 -0.25 0.5
v -0.5008469 0.008474827 0.5
v -0.2491531 -0.3512597 0.5
v -0.3711543 -0.2425194 0.5
v 0.5008469 0.5 0.25
v 0.5008469 0.25 0.25
v 0.5008469 0.5 0
v 0.5008469 0.25 0
v 0.5008469 0 0
v 0.5008469 0 0.25
v 0.5008469 0.5 -0.25
v 0.5008469 0.25 -0.25
v 0.5008469 0.5 -0.5
v 0.5008469 0.25 -0.5
v 0.5008469 0 -0.5
v 0.5008469 0 -0.25
v 0.5008469 -0.25 -0.25
v 0.5008469 -0.25 0
v 0.5008469 -0.25 -0.5
v 0.5008469 -0.5 -0.5
v 0.5008469 -0.5 -0.25
v 0.5008469 -0.5 0
v 0.5008469 -0.25 0.25
v 0.5008469 -0.5 0.25
v 0.2508469 0.25 -0.5
v 0.0008468628 0.4300013 -0.5
v 0.0008468628 0.25 -0.5
v 0.2508469 0.4849172 -0.5
v 0.2508469 0 -0.5
v 0.0008468628 0 -0.5
v -0.2491531 0.25 -0.5
v -0.3756318 0.2100787 -0.5
v -0.4991531 0.007748127 -0.5
v -0.2491531 0.3245831 -0.5
v -0.2491531 0 -0.5
v -0.4991531 0 -0.5
v -0.2491531 -0.25 -0.5
v -0.5008469 0.008474827 -0.5
v -0.2491531 -0.3512597 -0.5
v -0.3711543 -0.2425194 -0.5
v 0.0008468628 -0.4592981 -0.5
v 0.0008468628 -0.25 -0.5
v 0.2508469 -0.25 -0.5
v 0.2508469 -0.4889283 -0.5
v -0.4991531 0.007748127 -0.25
v -0.3756318 0.2100787 0
v -0.4991531 0.007748127 0
v -0.3756318 0.2100787 -0.25
v -0.4991531 0 -0.25
v -0.4991531 0 0
v -0.4991531 0.007748127 0.25
v -0.3756318 0.2100787 0.25
v -0.4991531 0 0.25
v -0.5008469 0.008474827 0.25
v -0.3711543 -0.2425194 0.25
v -0.3711543 -0.2425194 0
v -0.5008469 0.008474827 0
v -0.5008469 0.008474827 -0.25
v -0.3711543 -0.2425194 -0.25
v 0.0008468628 -0.4592981 0
v -0.2491531 -0.3512597 0
v -0.2491531 -0.3512597 0.25
v 0.0008468628 -0.4592981 0.25
v 0.2508469 -0.4889283 0
v 0.2508469 -0.4889283 0.25
v 0.2508469 -0.4889283 -0.25
v 0.0008468628 -0.4592981 -0.25
v -0.2491531 -0.3512597 -0.25
v -0.2491531 0.3245831 -0.25
v 0.0008468628 0.4300013 -0.25
v -0.2491531 0.3245831 0
v 0.0008468628 0.4300013 0
v 0.2508469 0.4849172 -0.25
v 0.2508469 0.4849172 0
v 0.2508469 0.4849172 0.25
v 0.0008468628 0.4300013 0.25
v -0.2491531 0.3245831 0.25

vt -0.3756318 0.2100787
vt -0.2491531 0.3245831
vt -0.2491531 0.25
vt -0.4991531 0.007748127
vt 0.0008468628 0.4300013
vt 0.0008468628 0.25
vt 0.0008468628 0
vt -0.2491531 0
vt -0.4991531 0
vt 0.2508469 0.4849172
vt 0.2508469 0.25
vt 0.5008469 0.5
vt 0.5008469 0.25
vt 0.5008469 0
vt 0.2508469 0
vt 0.2508469 -0.25
vt 0.0008468628 -0.25
vt 0.5008469 -0.25
vt 0.5008469 -0.5
vt 0.2508469 -0.4889283
vt 0.0008468628 -0.4592981
vt -0.2491531 -0.25
vt -0.5008469 0.008474827
vt -0.2491531 -0.3512597
vt -0.3711543 -0.2425194
vt -0.5 0.5
vt -0.25 0.5
vt -0.25 0.25
vt -0.5 0.25
vt 0 0.5
vt 0 0.25
vt 0 0
vt -0.25 0
vt -0.5 0
vt 0.25 0.5
vt 0.25 0.25
vt 0.5 0.5
vt 0.5 0.25
vt 0.5 0
vt 0.25 0
vt 0.25 -0.25
vt 0 -0.25
vt 0.5 -0.25
vt 0.5 -0.5
vt 0.25 -0.5
vt 0 -0.5
vt -0.25 -0.25
vt -0.5 -0.25
vt -0.25 -0.5
vt -0.5 -0.5
vt -0.2508469 0.25
vt -0.0008468628 0.4300013
vt -0.0008468628 0.25
vt -0.2508469 0.4849172
vt -0.2508469 0
vt -0.0008468628 0
vt -0.5008469 0
vt -0.5008469 0.25
vt -0.5008469 0.5
vt 0.2491531 0.25
vt 0.3756318 0.2100787
vt 0.4991531 0.007748127
vt 0.2491531 0.3245831
vt 0.2491531 0
vt 0.4991531 0
vt 0.2491531 -0.25
vt 0.5008469 0.008474827
vt 0.2491531 -0.3512597
vt 0.3711543 -0.2425194
vt -0.0008468628 -0.4592981
vt -0.0008468628 -0.25
vt -0.2508469 -0.25
vt -0.2508469 -0.4889283
vt -0.5008469 -0.5
vt -0.5008469 -0.25
vt -0.25 -0.06467539
vt 0 0.1534208
vt 0 -0.06467539
vt -0.25 0.1534208
vt -0.25 -0.07234172
vt 0 -0.07234172
vt -0.5 -0.07234172
vt -0.5 -0.06467539
vt -0.5 0.1534208
vt 0.25 -0.06467539
vt 0.5 0.1534208
vt 0.5 -0.06467539
vt 0.25 0.1534208
vt 0.25 -0.07234172
vt 0.5 -0.07234172
vt 0.25 -0.06420184
vt 0.5 -0.06420184
vt 0.25 -0.2937499
vt 0.5 -0.2937499
vt 0 -0.2937499
vt 0 -0.06420184
vt -0.25 -0.06420184
vt -0.25 -0.2937499
vt -0.5 -0.2937499
vt -0.5 -0.06420184
vt 0.1465992 0
vt -0.124766 0
vt -0.124766 0.25
vt 0.1465992 0.25
vt -0.2749751 0
vt -0.2749751 0.25
vt -0.2749751 0.5
vt -0.124766 0.5
vt 0.1465992 0.5
vt 0.6336597 0
vt 0.393075 0
vt 0.393075 0.25
vt 0.6336597 0.25
vt 0.393075 0.5
vt 0.6336597 0.5
vt 0.6336597 -0.5
vt 0.393075 -0.5
vt 0.393075 -0.25
vt 0.6336597 -0.25
vt 0.1465992 -0.5
vt 0.1465992 -0.25
vt -0.124766 -0.5
vt -0.124766 -0.25
vt -0.2749751 -0.5
vt -0.2749751 -0.25
vt 0.1221234 -0.25
vt -0.1488884 -0.5
vt -0.1488884 -0.25
vt 0.1221234 -0.5
vt 0.1221234 0
vt -0.1488884 0
vt 0.2803 0
vt 0.2803 -0.25
vt 0.2803 -0.5
vt -0.4025071 -0.25
vt -0.6424072 -0.5
vt -0.6424072 -0.25
vt -0.4025071 -0.5
vt -0.4025071 0
vt -0.6424072 0
vt -0.4025071 0.25
vt -0.6424072 0.25
vt -0.4025071 0.5
vt -0.6424072 0.5
vt -0.1488884 0.5
vt -0.1488884 0.25
vt 0.1221234 0.25
vt 0.1221234 0.5
vt 0.2803 0.5
vt 0.2803 0.25

vn 0 0 1
vn 0 0 -1
vn 1 0 0
vn -0.8535166 0.5210656 0
vn -1 0 0
vn 0.9806083 0.1959782 0
vn -0.8884083 -0.4590542 0
vn -0.3966956 -0.9179502 0
vn -0.6653711 -0.7465128 0
vn -0.04424336 -0.9990208 0
vn -0.117697 -0.9930496 0
vn -0.3885424 0.9214309 0
vn -0.6711429 0.741328 0
vn -0.06022185 0.998185 0
vn -0.2145484 0.9767134 0

usemtl Lit
f 3/3/1 2/2/1 1/1/1
f 3/3/1 1/1/1 4/4/1
f 6/6/1 5/5/1 2/2/1
f 6/6/1 2/2/1 3/3/1
f 7/7/1 6/6/1 3/3/1
f 7/7/1 3/3/1 8/8/1
f 8/8/1 3/3/1 4/4/1
f 8/8/1 4/4/1 9/9/1
f 11/11/1 10/10/1 5/5/1
f 11/11/1 5/5/1 6/6/1
f 13/13/1 12/12/1 10/10/1
f 13/13/1 10/10/1 11/11/1
f 14/14/1 13/13/1 11/11/1
f 14/14/1 11/11/1 15/15/1
f 15/15/1 11/11/1 6/6/1
f 15/15/1 6/6/1 7/7/1
f 16/16/1 15/15/1 7/7/1
f 16/16/1 7/7/1 17/17/1
f 18/18/1 14/14/1 15/15/1
f 18/18/1 15/15/1 16/16/1
f 19/19/1 18/18/1 16/16/1
f 19/19/1 16/16/1 20/20/1
f 20/20/1 16/16/1 17/17/1
f 20/20/1 17/17/1 21/21/1
f 22/22/1 8/8/1 9/9/1
f 22/22/2 9/9/2 23/23/2
f 17/17/1 7/7/1 8/8/1
f 17/17/1 8/8/1 22/22/1
f 21/21/1 17/17/1 22/22/1
f 21/21/1 22/22/1 24/24/1
f 24/24/1 22/22/1 23/23/1
f 24/24/1 23/23/1 25/25/1
f 27/28/3 26/27/3 12/26/3
f 27/28/3 12/26/3 13/29/3
f 29/31/3 28/30/3 26/27/3
f 29/31/3 26/27/3 27/28/3
f 30/32/3 29/31/3 27/28/3
f 30/32/3 27/28/3 31/33/3
f 31/33/3 27/28/3 13/29/3
f 31/33/3 13/29/3 14/34/3
f 33/36/3 32/35/3 28/30/3
f 33/36/3 28/30/3 29/31/3
f 35/38/3 34/37/3 32/35/3
f 35/38/3 32/35/3 33/36/3
f 36/39/3 35/38/3 33/36/3
f 36/39/3 33/36/3 37/40/3
f 37/40/3 33/36/3 29/31/3
f 37/40/3 29/31/3 30/32/3
f 38/41/3 37/40/3 30/32/3
f 38/41/3 30/32/3 39/42/3
f 40/43/3 36/39/3 37/40/3
f 40/43/3 37/40/3 38/41/3
f 41/44/3 40/43/3 38/41/3
f 41/44/3 38/41/3 42/45/3
f 42/45/3 38/41/3 39/42/3
f 42/45/3 39/42/3 43/46/3
f 44/47/3 31/33/3 14/34/3
f 44/47/3 14/34/3 18/48/3
f 39/42/3 30/32/3 31/33/3
f 39/42/3 31/33/3 44/47/3
f 43/46/3 39/42/3 44/47/3
f 43/46/3 44/47/3 45/49/3
f 45/49/3 44/47/3 18/48/3
f 45/49/3 18/48/3 19/50/3
f 48/53/2 47/52/2 46/51/2
f 47/52/2 49/54/2 46/51/2
f 51/56/2 48/53/2 50/55/2
f 48/53/2 46/51/2 50/55/2
f 50/55/2 46/51/2 36/57/2
f 46/51/2 35/58/2 36/57/2
f 46/51/2 49/54/2 35/58/2
f 49/54/2 34/59/2 35/58/2
f 54/62/2 53/61/2 52/60/2
f 53/61/2 55/63/2 52/60/2
f 57/65/2 54/62/2 56/64/2
f 54/62/2 52/60/2 56/64/2
f 56/64/2 52/60/2 51/56/2
f 52/60/2 48/53/2 51/56/2
f 52/60/2 55/63/2 48/53/2
f 55/63/2 47/52/2 48/53/2
f 59/67/1 57/65/1 58/66/1
f 57/65/2 56/64/2 58/66/2
f 61/69/2 59/67/2 60/68/2
f 59/67/2 58/66/2 60/68/2
f 60/68/2 58/66/2 62/70/2
f 58/66/2 63/71/2 62/70/2
f 58/66/2 56/64/2 63/71/2
f 56/64/2 51/56/2 63/71/2
f 63/71/2 51/56/2 64/72/2
f 51/56/2 50/55/2 64/72/2
f 62/70/2 63/71/2 65/73/2
f 63/71/2 64/72/2 65/73/2
f 65/73/2 64/72/2 41/74/2
f 64/72/2 40/75/2 41/74/2
f 64/72/2 50/55/2 40/75/2
f 50/55/2 36/57/2 40/75/2
f 68/78/4 67/77/4 66/76/4
f 67/77/4 69/79/4 66/76/4
f 71/81/5 68/78/5 70/80/5
f 68/78/5 66/76/5 70/80/5
f 70/80/5 66/76/5 57/82/5
f 66/76/5 54/83/5 57/82/5
f 66/76/4 69/79/4 54/83/4
f 69/79/4 53/84/4 54/83/4
f 4/87/4 1/86/4 72/85/4
f 1/86/4 73/88/4 72/85/4
f 9/90/5 4/87/5 74/89/5
f 4/87/5 72/85/5 74/89/5
f 74/89/5 72/85/5 71/81/5
f 72/85/5 68/78/5 71/81/5
f 72/85/4 73/88/4 68/78/4
f 73/88/4 67/77/4 68/78/4
f 23/92/6 9/90/6 75/91/6
f 9/90/6 74/89/6 75/91/6
f 25/94/7 23/92/7 76/93/7
f 23/92/7 75/91/7 76/93/7
f 76/93/7 75/91/7 77/95/7
f 75/91/7 78/96/7 77/95/7
f 75/91/6 74/89/6 78/96/6
f 74/89/6 71/81/6 78/96/6
f 78/96/6 71/81/6 79/97/6
f 71/81/6 70/80/6 79/97/6
f 77/95/7 78/96/7 80/98/7
f 78/96/7 79/97/7 80/98/7
f 80/98/7 79/97/7 61/99/7
f 79/97/7 59/100/7 61/99/7
f 79/97/6 70/80/6 59/100/6
f 70/80/6 57/82/6 59/100/6
f 83/103/8 82/102/8 81/101/8
f 83/103/8 81/101/8 84/104/8
f 76/106/9 77/105/9 82/102/9
f 76/106/9 82/102/9 83/103/9
f 25/107/9 76/106/9 83/103/9
f 25/107/9 83/103/9 24/108/9
f 24/108/8 83/103/8 84/104/8
f 24/108/8 84/104/8 21/109/8
f 86/112/10 85/111/10 43/110/10
f 86/112/10 43/110/10 45/113/10
f 84/104/11 81/101/11 85/111/11
f 84/104/11 85/111/11 86/112/11
f 21/109/11 84/104/11 86/112/11
f 21/109/11 86/112/11 20/114/11
f 20/114/10 86/112/10 45/113/10
f 20/114/10 45/113/10 19/115/10
f 87/118/10 65/117/10 41/116/10
f 87/118/10 41/116/10 42/119/10
f 88/121/11 62/120/11 65/117/11
f 88/121/11 65/117/11 87/118/11
f 81/101/11 88/121/11 87/118/11
f 81/101/11 87/118/11 85/111/11
f 85/111/10 87/118/10 42/119/10
f 85/111/10 42/119/10 43/110/10
f 89/123/8 60/122/8 62/120/8
f 89/123/8 62/120/8 88/121/8
f 80/125/9 61/124/9 60/122/9
f 80/125/9 60/122/9 89/123/9
f 77/105/9 80/125/9 89/123/9
f 77/105/9 89/123/9 82/102/9
f 82/102/8 89/123/8 88/121/8
f 82/102/8 88/121/8 81/101/8
f 91/128/12 47/127/12 90/126/12
f 47/127/12 55/129/12 90/126/12
f 93/131/12 91/128/12 92/130/12
f 91/128/12 90/126/12 92/130/12
f 92/130/13 90/126/13 67/132/13
f 90/126/13 69/133/13 67/132/13
f 90/126/13 55/129/13 69/133/13
f 55/129/13 53/134/13 69/133/13
f 32/137/14 34/136/14 94/135/14
f 34/136/14 49/138/14 94/135/14
f 28/140/14 32/137/14 95/139/14
f 32/137/14 94/135/14 95/139/14
f 95/139/15 94/135/15 93/131/15
f 94/135/15 91/128/15 93/131/15
f 94/135/15 49/138/15 91/128/15
f 49/138/15 47/127/15 91/128/15
f 26/142/14 28/140/14 96/141/14
f 28/140/14 95/139/14 96/141/14
f 12/144/14 26/142/14 10/143/14
f 26/142/14 96/141/14 10/143/14
f 10/143/15 96/141/15 5/145/15
f 96/141/15 97/146/15 5/145/15
f 96/141/15 95/139/15 97/146/15
f 95/139/15 93/131/15 97/146/15
f 97/146/12 93/131/12 98/147/12
f 93/131/12 92/130/12 98/147/12
f 5/145/12 97/146/12 2/148/12
f 97/146/12 98/147/12 2/148/12
f 2/148/13 98/147/13 1/149/13
f 98/147/13 73/150/13 1/149/13
f 98/147/13 92/130/13 73/150/13
f 92/130/13 67/132/13 73/150/13

