# ProBuilder 4.5.2
# https://unity3d.com/unity/features/worldbuilding/probuilder
# 29/05/2022 15:36:49

mtllib ./Rounded.mtl
o Rounded

g Cube
v 0.5 -0.5 0.5
v 0.25 -0.5 0.5
v 0.25 -0.25 0.5
v 0.5 -0.25 0.5
v 0 -0.5 0.5
v 0 -0.25 0.5
v 0 0 0.5
v 0.25 0 0.5
v 0.5 0 0.5
v -0.25 -0.5 0.5
v -0.25 -0.25 0.5
v -0.5 -0.5 0.5
v -0.5 -0.25 0.5
v -0.4416904 -0.05323279 0.5
v -0.25 0 0.5
v -0.25 0.25 0.5
v 0 0.25 0.5
v -0.3795073 0.08186138 0.5
v -0.2514623 0.2510388 0.5
v -0.1212083 0.3435388 0.5
v 0 0.4145721 0.5
v 0.25 0.25 0.5
v 0.5 0.25 0.5
v 0.25 0.4709532 0.5
v 0.5 0.5 0.5
v -0.5 -0.5 0.25
v -0.5 -0.25 0.25
v -0.5 -0.5 0
v -0.5 -0.25 0
v -0.4416904 -0.05323279 0
v -0.4416904 -0.05323279 0.25
v -0.5 -0.5 -0.25
v -0.5 -0.25 -0.25
v -0.5 -0.5 -0.5
v -0.5 -0.25 -0.5
v -0.4416904 -0.05323279 -0.5
v -0.4416904 -0.05323279 -0.25
v -0.3795073 0.08186138 -0.25
v -0.3795073 0.08186138 0
v -0.3795073 0.08186138 -0.5
v -0.2514623 0.2510388 -0.5
v -0.2514623 0.2510388 -0.25
v -0.2514623 0.2510388 0
v -0.3795073 0.08186138 0.25
v -0.2514623 0.2510388 0.25
v -0.25 -0.25 -0.5
v 0 -0.5 -0.5
v 0 -0.25 -0.5
v -0.25 -0.5 -0.5
v -0.25 0 -0.5
v 0 0 -0.5
v 0.25 -0.25 -0.5
v 0.5 -0.5 -0.5
v 0.5 -0.25 -0.5
v 0.25 -0.5 -0.5
v 0.25 0 -0.5
v 0.5 0 -0.5
v 0.25 0.25 -0.5
v 0.5 0.25 -0.5
v 0.25 0.4709532 -0.5
v 0.5 0.5 -0.5
v 0 0.4145721 -0.5
v 0 0.25 -0.5
v -0.25 0.25 -0.5
v -0.1212083 0.3435388 -0.5
v 0.5 -0.25 -0.25
v 0.5 -0.5 0
v 0.5 -0.25 0
v 0.5 -0.5 -0.25
v 0.5 0 -0.25
v 0.5 0 0
v 0.5 -0.25 0.25
v 0.5 -0.5 0.25
v 0.5 0 0.25
v 0.5 0.25 0.25
v 0.5 0.5 0.25
v 0.5 0.5 0
v 0.5 0.25 0
v 0.5 0.25 -0.25
v 0.5 0.5 -0.25
v 0 0.4145721 0
v 0.25 0.4709532 0
v 0.25 0.4709532 0.25
v 0 0.4145721 0.25
v -0.1212083 0.3435388 0
v -0.1212083 0.3435388 0.25
v -0.1212083 0.3435388 -0.25
v 0 0.4145721 -0.25
v 0.25 0.4709532 -0.25
v 0.25 -0.5 -0.25
v 0 -0.5 -0.25
v 0.25 -0.5 0
v 0 -0.5 0
v -0.25 -0.5 -0.25
v -0.25 -0.5 0
v -0.25 -0.5 0.25
v 0 -0.5 0.25
v 0.25 -0.5 0.25

vt 0.5 -0.5
vt 0.25 -0.5
vt 0.25 -0.25
vt 0.5 -0.25
vt 0 -0.5
vt 0 -0.25
vt 0 0
vt 0.25 0
vt 0.5 0
vt -0.25 -0.5
vt -0.25 -0.25
vt -0.5 -0.5
vt -0.5 -0.25
vt -0.4416904 -0.05323279
vt -0.25 0
vt -0.25 0.25
vt 0 0.25
vt -0.3795073 0.08186138
vt -0.2514623 0.2510388
vt -0.1212083 0.3435388
vt 0 0.4145721
vt 0.25 0.25
vt 0.5 0.25
vt 0.25 0.4709532
vt 0.5 0.5
vt 0.5 -0.6388182
vt 0.25 -0.6388182
vt 0.25 -0.4033214
vt 0.5 -0.4033214
vt 0 -0.6388182
vt 0 -0.4033214
vt 0 -0.1983977
vt 0.25 -0.1983977
vt 0.5 -0.1983977
vt -0.25 -0.6388182
vt -0.25 -0.4033214
vt -0.5 -0.6388182
vt -0.5 -0.4033214
vt -0.5 -0.1983977
vt -0.25 -0.1983977
vt -0.25 -0.05026905
vt 0 -0.05026905
vt -0.5 -0.05026905
vt -0.5 0.1520721
vt -0.25 0.1520721
vt 0 0.1520721
vt 0.25 -0.05026905
vt 0.5 -0.05026905
vt 0.25 0.1520721
vt 0.5 0.1520721
vt 0.4416904 -0.05323279
vt -0.5 0
vt -0.5 0.25
vt -0.25 0.4709532
vt -0.5 0.5
vt 0.1212083 0.3435388
vt 0.2514623 0.2510388
vt 0.3795073 0.08186138
vt -0.25 0.5
vt 0 0.5
vt 0.25 0.5
vt -0.1504246 0
vt -0.4038447 0
vt -0.4038447 0.25
vt -0.1504246 0.25
vt -0.6473466 0
vt -0.6473466 0.25
vt -0.6473466 0.5
vt -0.4038447 0.5
vt -0.1504246 0.5
vt 0.1432375 0
vt -0.01170268 0
vt -0.01170268 0.25
vt 0.1432375 0.25
vt -0.01170268 0.5
vt 0.1432375 0.5
vt 0.1432375 -0.5
vt -0.01170268 -0.5
vt -0.01170268 -0.25
vt 0.1432375 -0.25
vt -0.1504246 -0.5
vt -0.1504246 -0.25
vt -0.4038447 -0.5
vt -0.4038447 -0.25
vt -0.6473466 -0.5
vt -0.6473466 -0.25

vn 0 0 1
vn -1 0 0
vn -0.9587873 0.2841249 0
vn -0.9083888 0.4181266 0
vn -0.7973637 0.6034991 0
vn 0 0 -1
vn 1 0 0
vn -0.2199991 0.9755 0
vn -0.1154107 0.9933178 0
vn -0.5790035 0.815325 0
vn -0.5056147 0.8627594 0
vn 0 -1 0

usemtl Lit
f 3/3/1 2/2/1 1/1/1
f 3/3/1 1/1/1 4/4/1
f 6/6/1 5/5/1 2/2/1
f 6/6/1 2/2/1 3/3/1
f 7/7/1 6/6/1 3/3/1
f 7/7/1 3/3/1 8/8/1
f 8/8/1 3/3/1 4/4/1
f 8/8/1 4/4/1 9/9/1
f 11/11/1 10/10/1 5/5/1
f 11/11/1 5/5/1 6/6/1
f 13/13/1 12/12/1 10/10/1
f 13/13/1 10/10/1 11/11/1
f 14/14/1 13/13/1 11/11/1
f 14/14/1 11/11/1 15/15/1
f 15/15/1 11/11/1 6/6/1
f 15/15/1 6/6/1 7/7/1
f 16/16/1 15/15/1 7/7/1
f 16/16/1 7/7/1 17/17/1
f 18/18/1 14/14/1 15/15/1
f 18/18/1 15/15/1 16/16/1
f 19/19/1 18/18/1 16/16/1
f 19/19/1 16/16/1 20/20/1
f 20/20/1 16/16/1 17/17/1
f 20/20/1 17/17/1 21/21/1
f 22/22/1 8/8/1 9/9/1
f 22/22/1 9/9/1 23/23/1
f 17/17/1 7/7/1 8/8/1
f 17/17/1 8/8/1 22/22/1
f 21/21/1 17/17/1 22/22/1
f 21/21/1 22/22/1 24/24/1
f 24/24/1 22/22/1 23/23/1
f 24/24/1 23/23/1 25/25/1
f 27/28/2 26/27/2 12/26/2
f 27/28/2 12/26/2 13/29/2
f 29/31/2 28/30/2 26/27/2
f 29/31/2 26/27/2 27/28/2
f 30/32/3 29/31/3 27/28/3
f 30/32/3 27/28/3 31/33/3
f 31/33/3 27/28/3 13/29/3
f 31/33/3 13/29/3 14/34/3
f 33/36/2 32/35/2 28/30/2
f 33/36/2 28/30/2 29/31/2
f 35/38/2 34/37/2 32/35/2
f 35/38/2 32/35/2 33/36/2
f 36/39/3 35/38/3 33/36/3
f 36/39/3 33/36/3 37/40/3
f 37/40/3 33/36/3 29/31/3
f 37/40/3 29/31/3 30/32/3
f 38/41/4 37/40/4 30/32/4
f 38/41/4 30/32/4 39/42/4
f 40/43/4 36/39/4 37/40/4
f 40/43/4 37/40/4 38/41/4
f 41/44/5 40/43/5 38/41/5
f 41/44/5 38/41/5 42/45/5
f 42/45/5 38/41/5 39/42/5
f 42/45/5 39/42/5 43/46/5
f 44/47/4 31/33/4 14/34/4
f 44/47/4 14/34/4 18/48/4
f 39/42/4 30/32/4 31/33/4
f 39/42/4 31/33/4 44/47/4
f 43/46/5 39/42/5 44/47/5
f 43/46/5 44/47/5 45/49/5
f 45/49/5 44/47/5 18/48/5
f 45/49/5 18/48/5 19/50/5
f 48/6/6 47/5/6 46/3/6
f 47/5/6 49/2/6 46/3/6
f 51/7/6 48/6/6 50/8/6
f 48/6/6 46/3/6 50/8/6
f 50/8/6 46/3/6 36/51/6
f 46/3/6 35/4/6 36/51/6
f 46/3/6 49/2/6 35/4/6
f 49/2/6 34/1/6 35/4/6
f 54/13/6 53/12/6 52/11/6
f 53/12/6 55/10/6 52/11/6
f 57/52/6 54/13/6 56/15/6
f 54/13/6 52/11/6 56/15/6
f 56/15/6 52/11/6 51/7/6
f 52/11/6 48/6/6 51/7/6
f 52/11/6 55/10/6 48/6/6
f 55/10/6 47/5/6 48/6/6
f 59/53/6 57/52/6 58/16/6
f 57/52/6 56/15/6 58/16/6
f 61/55/6 59/53/6 60/54/6
f 59/53/6 58/16/6 60/54/6
f 60/54/6 58/16/6 62/21/6
f 58/16/6 63/17/6 62/21/6
f 58/16/6 56/15/6 63/17/6
f 56/15/6 51/7/6 63/17/6
f 63/17/6 51/7/6 64/22/6
f 51/7/6 50/8/6 64/22/6
f 62/21/6 63/17/6 65/56/6
f 63/17/6 64/22/6 65/56/6
f 65/56/6 64/22/6 41/57/6
f 64/22/6 40/58/6 41/57/6
f 64/22/6 50/8/6 40/58/6
f 50/8/6 36/51/6 40/58/6
f 68/6/7 67/5/7 66/3/7
f 67/5/7 69/2/7 66/3/7
f 71/7/7 68/6/7 70/8/7
f 68/6/7 66/3/7 70/8/7
f 70/8/7 66/3/7 57/9/7
f 66/3/7 54/4/7 57/9/7
f 66/3/7 69/2/7 54/4/7
f 69/2/7 53/1/7 54/4/7
f 4/13/7 1/12/7 72/11/7
f 1/12/7 73/10/7 72/11/7
f 9/52/7 4/13/7 74/15/7
f 4/13/7 72/11/7 74/15/7
f 74/15/7 72/11/7 71/7/7
f 72/11/7 68/6/7 71/7/7
f 72/11/7 73/10/7 68/6/7
f 73/10/7 67/5/7 68/6/7
f 23/53/7 9/52/7 75/16/7
f 9/52/7 74/15/7 75/16/7
f 25/55/7 23/53/7 76/59/7
f 23/53/7 75/16/7 76/59/7
f 76/59/7 75/16/7 77/60/7
f 75/16/7 78/17/7 77/60/7
f 75/16/7 74/15/7 78/17/7
f 74/15/7 71/7/7 78/17/7
f 78/17/7 71/7/7 79/22/7
f 71/7/7 70/8/7 79/22/7
f 77/60/7 78/17/7 80/61/7
f 78/17/7 79/22/7 80/61/7
f 80/61/7 79/22/7 61/25/7
f 79/22/7 59/23/7 61/25/7
f 79/22/7 70/8/7 59/23/7
f 70/8/7 57/9/7 59/23/7
f 83/64/8 82/63/8 81/62/8
f 83/64/8 81/62/8 84/65/8
f 76/67/9 77/66/9 82/63/9
f 76/67/9 82/63/9 83/64/9
f 25/68/9 76/67/9 83/64/9
f 25/68/9 83/64/9 24/69/9
f 24/69/8 83/64/8 84/65/8
f 24/69/8 84/65/8 21/70/8
f 86/73/10 85/72/10 43/71/10
f 86/73/10 43/71/10 45/74/10
f 84/65/11 81/62/11 85/72/11
f 84/65/11 85/72/11 86/73/11
f 21/70/11 84/65/11 86/73/11
f 21/70/11 86/73/11 20/75/11
f 20/75/10 86/73/10 45/74/10
f 20/75/10 45/74/10 19/76/10
f 87/79/10 65/78/10 41/77/10
f 87/79/10 41/77/10 42/80/10
f 88/82/11 62/81/11 65/78/11
f 88/82/11 65/78/11 87/79/11
f 81/62/11 88/82/11 87/79/11
f 81/62/11 87/79/11 85/72/11
f 85/72/10 87/79/10 42/80/10
f 85/72/10 42/80/10 43/71/10
f 89/84/8 60/83/8 62/81/8
f 89/84/8 62/81/8 88/82/8
f 80/86/9 61/85/9 60/83/9
f 80/86/9 60/83/9 89/84/9
f 77/66/9 80/86/9 89/84/9
f 77/66/9 89/84/9 82/63/9
f 82/63/8 89/84/8 88/82/8
f 82/63/8 88/82/8 81/62/8
f 91/6/12 47/5/12 90/3/12
f 47/5/12 55/2/12 90/3/12
f 93/7/12 91/6/12 92/8/12
f 91/6/12 90/3/12 92/8/12
f 92/8/12 90/3/12 67/9/12
f 90/3/12 69/4/12 67/9/12
f 90/3/12 55/2/12 69/4/12
f 55/2/12 53/1/12 69/4/12
f 32/13/12 34/12/12 94/11/12
f 34/12/12 49/10/12 94/11/12
f 28/52/12 32/13/12 95/15/12
f 32/13/12 94/11/12 95/15/12
f 95/15/12 94/11/12 93/7/12
f 94/11/12 91/6/12 93/7/12
f 94/11/12 49/10/12 91/6/12
f 49/10/12 47/5/12 91/6/12
f 26/53/12 28/52/12 96/16/12
f 28/52/12 95/15/12 96/16/12
f 12/55/12 26/53/12 10/59/12
f 26/53/12 96/16/12 10/59/12
f 10/59/12 96/16/12 5/60/12
f 96/16/12 97/17/12 5/60/12
f 96/16/12 95/15/12 97/17/12
f 95/15/12 93/7/12 97/17/12
f 97/17/12 93/7/12 98/22/12
f 93/7/12 92/8/12 98/22/12
f 5/60/12 97/17/12 2/61/12
f 97/17/12 98/22/12 2/61/12
f 2/61/12 98/22/12 1/25/12
f 98/22/12 73/23/12 1/25/12
f 98/22/12 92/8/12 73/23/12
f 92/8/12 67/9/12 73/23/12

